<svg width="23" height="23" viewBox="0 0 23 23" fill="none" xmlns="http://www.w3.org/2000/svg">
    <path opacity="0.2" d="M11.5 5.03125C4.3125 5.03125 1.4375 11.5 1.4375 11.5C1.4375 11.5 4.3125 17.9688 11.5 17.9688C18.6875 17.9688 21.5625 11.5 21.5625 11.5C21.5625 11.5 18.6875 5.03125 11.5 5.03125ZM11.5 15.0938C10.7892 15.0938 10.0944 14.883 9.50342 14.4881C8.91243 14.0932 8.45181 13.5319 8.17981 12.8753C7.9078 12.2186 7.83664 11.496 7.9753 10.7989C8.11397 10.1018 8.45624 9.46143 8.95884 8.95884C9.46143 8.45624 10.1018 8.11397 10.7989 7.9753C11.496 7.83664 12.2186 7.90781 12.8753 8.17981C13.5319 8.45181 14.0932 8.91243 14.4881 9.50342C14.883 10.0944 15.0938 10.7892 15.0938 11.5C15.0938 12.4531 14.7151 13.3672 14.0412 14.0412C13.3672 14.7151 12.4531 15.0938 11.5 15.0938Z" fill="black" fill-opacity="0.38"/>
    <path d="M22.2193 11.2089C22.1878 11.1379 21.4268 9.44977 19.7351 7.75801C17.4809 5.50383 14.6337 4.3125 11.5 4.3125C8.36625 4.3125 5.5191 5.50383 3.26492 7.75801C1.57316 9.44977 0.808593 11.1406 0.780741 11.2089C0.739874 11.3008 0.718758 11.4003 0.718758 11.5009C0.718758 11.6015 0.739874 11.701 0.780741 11.7929C0.812187 11.8639 1.57316 13.5511 3.26492 15.2429C5.5191 17.4962 8.36625 18.6875 11.5 18.6875C14.6337 18.6875 17.4809 17.4962 19.7351 15.2429C21.4268 13.5511 22.1878 11.8639 22.2193 11.7929C22.2601 11.701 22.2812 11.6015 22.2812 11.5009C22.2812 11.4003 22.2601 11.3008 22.2193 11.2089ZM11.5 17.25C8.73461 17.25 6.31871 16.2446 4.31879 14.2627C3.4982 13.4466 2.80006 12.5161 2.24609 11.5C2.79991 10.4838 3.49806 9.55324 4.31879 8.7373C6.31871 6.75535 8.73461 5.75 11.5 5.75C14.2654 5.75 16.6813 6.75535 18.6812 8.7373C19.5034 9.55305 20.2031 10.4836 20.7584 11.5C20.1106 12.7093 17.2886 17.25 11.5 17.25ZM11.5 7.1875C10.6471 7.1875 9.81329 7.44042 9.1041 7.91429C8.39492 8.38815 7.84217 9.06167 7.51577 9.84968C7.18937 10.6377 7.10396 11.5048 7.27036 12.3413C7.43676 13.1779 7.84749 13.9463 8.4506 14.5494C9.05371 15.1525 9.82213 15.5632 10.6587 15.7296C11.4952 15.896 12.3623 15.8106 13.1503 15.4842C13.9383 15.1578 14.6118 14.6051 15.0857 13.8959C15.5596 13.1867 15.8125 12.3529 15.8125 11.5C15.8113 10.3566 15.3566 9.26041 14.5481 8.45192C13.7396 7.64342 12.6434 7.18869 11.5 7.1875ZM11.5 14.375C10.9314 14.375 10.3755 14.2064 9.90274 13.8905C9.42994 13.5746 9.06145 13.1256 8.84385 12.6002C8.62624 12.0749 8.56931 11.4968 8.68024 10.9391C8.79117 10.3814 9.06499 9.86914 9.46707 9.46707C9.86914 9.06499 10.3814 8.79117 10.9391 8.68024C11.4968 8.56931 12.0749 8.62624 12.6002 8.84385C13.1256 9.06145 13.5746 9.42994 13.8905 9.90274C14.2064 10.3755 14.375 10.9314 14.375 11.5C14.375 12.2625 14.0721 12.9938 13.5329 13.5329C12.9938 14.0721 12.2625 14.375 11.5 14.375Z" fill="black" fill-opacity="0.38"/>
</svg>
    